<?xml version="1.0" encoding="UTF-8"?>
<svg width="39.886px" height="39.88599px" viewBox="0 0 39.886 39.88599" version="1.1" xmlns="http://www.w3.org/2000/svg" xmlns:xlink="http://www.w3.org/1999/xlink">
    <title>logoipsum-235 (1)</title>
    <g id="Page-1" stroke="none" stroke-width="1" fill="none" fill-rule="evenodd">
        <g id="logoipsum-235-(1)">
            <path d="M23.4395,4.35046 C24.8273,2.96276 27.0773,2.96276 28.4651,4.35046 C29.8529,5.73826 29.8529,7.98829 28.4651,9.37609 L20.0042,17.83699 C17.575,14.58139 17.8389,9.95119 20.7959,6.99419 L23.4395,4.35046 Z" id="Path" fill="#4F9E91"></path>
            <path d="M35.5349,23.43969 C36.9229,24.82739 36.9229,27.07749 35.5349,28.46519 C34.1479,29.85299 31.8975,29.85299 30.5097,28.46519 L22.0488,20.00439 C25.3044,17.57519 29.9346,17.83899 32.8916,20.79599 L35.5349,23.43969 Z" id="Path" fill="#EBE1C5"></path>
            <path d="M16.446,35.53539 C15.0583,36.92319 12.8082,36.92319 11.4205,35.53539 C10.0327,34.14759 10.0327,31.89759 11.4205,30.50979 L19.8813,22.04899 C22.3105,25.30459 22.0467,29.93479 19.0897,32.89169 L16.446,35.53539 Z" id="Path" fill="#EBCC6E"></path>
            <path d="M4.3504,16.44619 C2.9626,15.05839 2.9626,12.80839 4.3504,11.42059 C5.7382,10.03279 7.9882,10.03279 9.376,11.42059 L17.8369,19.88149 C14.5813,22.31069 9.951,22.04679 6.9941,19.08989 L4.3504,16.44619 Z" id="Path" fill="#ED834E"></path>
            <path d="M21.5488,34.49919 C23.5951,32.22399 24.5462,29.31269 24.4019,26.44629 L28.4653,30.50969 C28.4754,30.51979 28.4856,30.52989 28.4958,30.53999 L28.4958,33.44099 C28.4958,35.40359 26.9048,36.99459 24.9422,36.99459 C23.3481,36.99459 21.9992,35.94499 21.5488,34.49919 Z" id="Path" fill="#ED834E"></path>
            <path d="M5.3865,21.54879 C7.6616,23.59519 10.5729,24.54629 13.4393,24.40199 L9.376,28.46539 C9.3658,28.47549 9.3557,28.48569 9.3457,28.49579 L6.4447,28.49579 C4.4821,28.49589 2.8911,26.90479 2.8911,24.94219 C2.8911,23.34819 3.9407,21.99919 5.3865,21.54879 Z" id="Path" fill="#4F9E91"></path>
            <path d="M34.4989,18.33719 C32.224,16.29079 29.3127,15.33969 26.4463,15.48389 L30.5096,11.42059 C30.5198,11.41049 30.5298,11.40029 30.5399,11.39009 L33.441,11.39009 C35.4039,11.39009 36.9949,12.98119 36.9949,14.94379 C36.9949,16.53789 35.9449,17.88679 34.4989,18.33719 Z" id="Path" fill="#EBCC6E"></path>
            <path d="M18.3369,5.38667 C16.2905,7.66179 15.3395,10.57309 15.4837,13.43959 L11.4204,9.37619 C11.4102,9.36609 11.4001,9.35599 11.3899,9.34589 L11.3899,6.44487 C11.3899,4.48227 12.9809,2.89117 14.9435,2.89117 C16.5376,2.89117 17.8865,3.94087 18.3369,5.38667 Z" id="Path" fill="#EBE1C5"></path>
            <path d="M14.9437,0 C11.3843,0 8.4988,2.8855 8.4988,6.4449 L8.4988,7.69839 C6.3574,7.13889 3.9842,7.69809 2.3061,9.37619 C-0.2108,11.89309 -0.2108,15.97379 2.3061,18.49069 L3.1924,19.37699 C1.2826,20.49559 0,22.56909 0,24.94219 C0,28.50159 2.8855,31.38709 6.4449,31.38709 L7.6983,31.38709 C7.1388,33.52849 7.698,35.90169 9.3761,37.57969 C11.893,40.09659 15.9737,40.09659 18.4906,37.57969 L21.1342,34.93609 C23.4663,32.60399 24.5555,29.49959 24.4018,26.44619 L28.4653,30.50959 C30.9822,33.02649 35.063,33.02649 37.58,30.50959 C40.097,27.99269 40.097,23.91199 37.58,21.39519 L36.694,20.50899 C38.603,19.39039 39.886,17.31689 39.886,14.94379 C39.886,11.38439 37,8.49889 33.441,8.49889 L32.1875,8.49889 C32.7471,6.3574 32.1878,3.9842 30.5097,2.3061 C27.9929,-0.2108 23.9122,-0.2108 21.3953,2.3061 L18.7516,4.9498 C16.4195,7.28189 15.3303,10.38619 15.484,13.43959 L11.4206,9.37619 C11.4104,9.36609 11.4003,9.35599 11.3901,9.34589 L11.3901,6.4449 C11.3901,4.4823 12.9811,2.8913 14.9437,2.8913 C16.5378,2.8913 17.8867,3.9409 18.3371,5.3867 C18.4706,5.2383 18.6087,5.0926 18.7515,4.9498 L20.5089,3.1924 C19.3903,1.2826 17.3168,0 14.9437,0 Z M30.54,11.39019 C30.5299,11.40029 30.5199,11.41049 30.5097,11.42059 L26.4464,15.48389 C29.3129,15.33969 32.2241,16.29069 34.499,18.33719 C35.945,17.88679 36.995,16.53779 36.995,14.94379 C36.995,12.98119 35.404,11.39019 33.441,11.39019 L30.54,11.39019 Z M9.3457,28.49579 C9.3558,28.48559 9.3659,28.47539 9.3761,28.46529 L13.4394,24.40189 C10.573,24.54619 7.6618,23.59509 5.3867,21.54879 C3.9409,21.99919 2.8912,23.34809 2.8912,24.94219 C2.8912,26.90479 4.4823,28.49579 6.4449,28.49579 L9.3457,28.49579 Z M5.2759,21.44779 C5.1656,21.34589 5.0569,21.24139 4.9498,21.13429 L4.9498,21.13439 C5.0569,21.24149 5.1656,21.34589 5.2759,21.44779 Z M24.9422,39.88599 C22.569,39.88599 20.4955,38.60329 19.3769,36.69349 L21.1342,34.93609 C21.2771,34.79329 21.4152,34.64759 21.5487,34.49919 C21.9991,35.94499 23.348,36.99469 24.9422,36.99469 C26.9048,36.99469 28.4958,35.40369 28.4958,33.44109 L28.4958,30.54009 C29.3286,31.36199 30.3296,31.91119 31.3871,32.18749 L31.3871,33.44109 C31.3871,37.00049 28.5016,39.88599 24.9422,39.88599 Z M28.4653,4.3505 C27.0775,2.9628 24.8275,2.9628 23.4397,4.3505 L20.796,6.99419 C17.8391,9.95119 17.5752,14.58139 20.0044,17.83699 L28.4653,9.37609 C29.8531,7.98829 29.8531,5.7383 28.4653,4.3505 Z M35.535,28.46519 C36.923,27.07739 36.923,24.82739 35.535,23.43959 L32.8916,20.79589 C29.9347,17.83899 25.3044,17.57509 22.0488,20.00429 L30.5097,28.46519 C31.8975,29.85299 34.148,29.85299 35.535,28.46519 Z M16.4461,35.53529 C15.0583,36.92309 12.8083,36.92309 11.4205,35.53529 C10.0328,34.14749 10.0328,31.89749 11.4205,30.50969 L19.8814,22.04879 C22.3106,25.30439 22.0467,29.93469 19.0898,32.89159 L16.4461,35.53529 Z M4.3505,11.42059 C2.9628,12.80839 2.9628,15.05839 4.3505,16.44619 L6.9942,19.08989 C9.9512,22.04679 14.5814,22.31069 17.837,19.88149 L9.3761,11.42059 C7.9883,10.03289 5.7383,10.03289 4.3505,11.42059 Z" id="Shape" fill="#3D3A2C"></path>
        </g>
    </g>
</svg>